<svg xmlns="http://www.w3.org/2000/svg" viewBox="0 0 38.82 38.82"><defs><style>.cls-1{fill:#fff;}</style></defs><title>android</title><g id="Layer_2" data-name="Layer 2"><g id="Layer_1-2" data-name="Layer 1"><circle id="Ellipse_1" data-name="Ellipse 1" cx="19.41" cy="19.41" r="19.41"/><path class="cls-1" d="M11.79,15.77h0A1.25,1.25,0,0,0,10.49,17v5.43a1.25,1.25,0,0,0,1.25,1.25h0A1.26,1.26,0,0,0,13,22.45V17A1.25,1.25,0,0,0,11.79,15.77Z"/><path class="cls-1" d="M13.64,24.54a1.15,1.15,0,0,0,1.14,1.15H16v2.93a1.25,1.25,0,0,0,1.24,1.25h.06a1.25,1.25,0,0,0,1.24-1.25V25.69h1.72v2.93a1.25,1.25,0,0,0,1.24,1.25h.06a1.25,1.25,0,0,0,1.24-1.25V25.69H24a1.16,1.16,0,0,0,1.15-1.15V16H13.64Z"/><path class="cls-1" d="M22.29,10.77l1-1.5A.21.21,0,0,0,23.2,9a.2.2,0,0,0-.29.06l-1,1.55a6.7,6.7,0,0,0-5,0l-1-1.55A.2.2,0,0,0,15.62,9a.21.21,0,0,0-.06.28l1,1.5a4.93,4.93,0,0,0-2.94,4.34c0,.12,0,.23,0,.34h11.6c0-.11,0-.22,0-.34A4.94,4.94,0,0,0,22.29,10.77Zm-5.57,2.69a.56.56,0,1,1,.56-.55A.56.56,0,0,1,16.72,13.46Zm5.38,0a.56.56,0,1,1,.56-.55A.56.56,0,0,1,22.1,13.46Z"/><path class="cls-1" d="M27.08,15.77h0A1.25,1.25,0,0,0,25.78,17v5.43A1.26,1.26,0,0,0,27,23.7h0a1.26,1.26,0,0,0,1.25-1.25V17A1.25,1.25,0,0,0,27.08,15.77Z"/></g></g></svg>