<svg xmlns="http://www.w3.org/2000/svg" viewBox="0 0 38.82 38.82"><defs><style>.cls-1{fill:#fff;}</style></defs><title>apple</title><g id="Layer_2" data-name="Layer 2"><g id="Layer_1-2" data-name="Layer 1"><circle id="Ellipse_1" data-name="Ellipse 1" cx="19.41" cy="19.41" r="19.41"/><g id="Groupe_13" data-name="Groupe 13"><path id="Tracé_185" data-name="Tracé 185" class="cls-1" d="M24.2,20a4.42,4.42,0,0,1,2.05-3.58,4.27,4.27,0,0,0-3.41-1.88c-1.54-.17-3.07.85-3.75.85-.86,0-1.88-.85-3.25-.85A4.9,4.9,0,0,0,11.92,17c-1.71,2.9-.51,7.16,1.19,9.55.86,1.2,1.71,2.39,3.07,2.39,1.2,0,1.71-.85,3.07-.85,1.54,0,1.88.85,3.07.68,1.37,0,2.05-1.19,2.9-2.39a12,12,0,0,0,1.37-2.73c0,.17-2.39-.68-2.39-3.58"/><path id="Tracé_186" data-name="Tracé 186" class="cls-1" d="M21.81,12.86a4.77,4.77,0,0,0,1-3.08,3.81,3.81,0,0,0-2.73,1.54,3.27,3.27,0,0,0-1.2,2.9,3.38,3.38,0,0,0,2.9-1.36"/></g></g></g></svg>