<svg xmlns="http://www.w3.org/2000/svg" xmlns:xlink="http://www.w3.org/1999/xlink" viewBox="0 0 27.74 28.1"><defs><style>.cls-1{fill:none;clip-rule:evenodd;}.cls-2{clip-path:url(#clip-path);}.cls-3{fill:#3e82f1;}.cls-4{clip-path:url(#clip-path-2);}.cls-5{fill:#32a753;}.cls-6{clip-path:url(#clip-path-3);}.cls-7{fill:#f9bb00;}.cls-8{clip-path:url(#clip-path-4);}.cls-9{fill:#e74133;}</style><clipPath id="clip-path"><path class="cls-1" d="M22.72,14.25a11,11,0,0,0-.16-1.84H14.05V15.9h4.86a4.18,4.18,0,0,1-1.8,2.73v2.26H20a8.82,8.82,0,0,0,2.69-6.64Z"/></clipPath><clipPath id="clip-path-2"><path class="cls-1" d="M14.05,23.08a8.64,8.64,0,0,0,6-2.19l-2.92-2.26a5.46,5.46,0,0,1-3.06.86A5.38,5.38,0,0,1,9,15.77H6v2.34a9,9,0,0,0,8.07,5Z"/></clipPath><clipPath id="clip-path-3"><path class="cls-1" d="M9,15.77a5.25,5.25,0,0,1,0-3.44V10H6a9.07,9.07,0,0,0,0,8.12l3-2.34Z"/></clipPath><clipPath id="clip-path-4"><path class="cls-1" d="M14.05,8.61A4.88,4.88,0,0,1,17.5,10l2.59-2.59a8.66,8.66,0,0,0-6-2.35A9,9,0,0,0,6,10l3,2.34a5.38,5.38,0,0,1,5.05-3.72Z"/></clipPath></defs><title>G</title><g id="Layer_2" data-name="Layer 2"><g id="Layer_1-2" data-name="Layer 1"><g class="cls-2"><rect class="cls-3" x="9.03" y="7.39" width="18.71" height="18.52"/></g><g class="cls-4"><rect class="cls-5" x="0.96" y="10.75" width="24.08" height="17.35"/></g><g class="cls-6"><rect class="cls-7" y="4.98" width="14.01" height="18.15"/></g><g class="cls-8"><rect class="cls-9" x="0.96" width="24.15" height="17.35"/></g></g></g></svg>