<svg xmlns="http://www.w3.org/2000/svg" viewBox="0 0 248.67 378.29"><defs><style>.cls-1{isolation:isolate;}.cls-2{fill:#ddd;}.cls-3{fill:#cb475a;}.cls-4{fill:#af3d4d;}.cls-5{fill:#003f6f;}.cls-6{fill:#161030;}.cls-7{fill:#ff6983;}.cls-8{fill:#ff8c61;}.cls-9{fill:#e5714c;}.cls-10{fill:#14102f;}.cls-11{fill:#211943;}.cls-12{fill:#003158;}.cls-13{fill:#002645;}.cls-14{fill:#261f4e;}.cls-15{fill:#433b73;}.cls-16{fill:#302a56;}.cls-17{fill:#ffc800;}.cls-18{fill:#ffc600;}.cls-19{fill:#edad00;}.cls-20{fill:none;stroke:#ffc600;stroke-miterlimit:10;stroke-width:2px;}.cls-21{fill:#191337;opacity:0.3;mix-blend-mode:multiply;}.cls-22{fill:#007bcf;}.cls-23{fill:#0098ff;}.cls-24{fill:#e95369;}</style></defs><title>illustration</title><g class="cls-1"><g id="Layer_2" data-name="Layer 2"><g id="Layer_1-2" data-name="Layer 1"><path class="cls-2" d="M248.67,365.47c0,7.08-55.67,12.82-124.34,12.82S0,372.55,0,365.47s55.67-12.82,124.33-12.82S248.67,358.39,248.67,365.47Z"/><path class="cls-3" d="M44.1,71.79S22,86,29,133.84c0,0-.67,2.65,8.07,6.47,0,0,10.12-4.12,10.12-5.37v-30.7Z"/><path class="cls-4" d="M39.57,129.15c-8.74-3.81-8.08-6.47-8.08-6.47A106.39,106.39,0,0,1,31,92.08c-3.09,9.58-4.81,23.1-2.09,41.76,0,0-.67,2.65,8.07,6.47,0,0,10.12-4.12,10.12-5.37v-9.25C44.14,127.29,39.57,129.15,39.57,129.15Z"/><path class="cls-5" d="M116.51,34.21s-24.61-6-50.81-2.27l-7,17.94S48.69,48.51,44.1,71.79c0,0-13.32,53.74-3.43,111.85,0,0,18.82,7.81,32.36,6.36s17-37.18,17-37.18,8.51-41.87,8.7-42.53S106,58.21,106,58.21Z"/><path class="cls-6" d="M98.71,110.29c0-.17.54-3.69,1.26-8.8l-1.26-19L86.13,85.81S83.18,72.73,74.78,66.68c0,0-14.75,27.15-14.73,28.22s-12.91,24.69-12.91,24.69,4.76,6.08,11.57,7.82l-1,8.11-8.81,37.14a24.77,24.77,0,0,1-9,6.2c.23,1.59.48,3.18.75,4.78,0,0,18.82,7.81,32.36,6.36s17-37.18,17-37.18S98.52,111,98.71,110.29Z"/><path class="cls-6" d="M62.18,74.4c4.54-23,13.6-24.19,15.37-24.19h.23l.75.1,7.6-19.59-2.06,0L77.25,48.29c-2.59.14-12.33,2.26-17,25.69-.13.57-13,53.85-5.86,114.08.65.16,1.31.32,2,.47C49.08,128.38,62,75,62.18,74.4Z"/><path class="cls-6" d="M113.07,34.84s-17,4.45-18.36,31.84c0,0-14.26,12-17.27,43.55,0,0-12.7,52.93-6.69,79.93,0,0,16.61,2.71,39.45-.16L124.69,69.48l8.29-16S125.94,30.09,113.07,34.84Z"/><path class="cls-7" d="M165.94,67.27s.11-29.2-38-34.78C128,32.49,126.77,58,165.94,67.27Z"/><path class="cls-6" d="M132,11.17S133.5-2.08,120.44.28c0,0-16.38,7.4-5.72,22.65,0,0,5,6.07,12.31,0C127,22.93,133.44,18.62,132,11.17Z"/><path class="cls-8" d="M151.88,61l.58-8.84s7.7,3,11.23,2.06c0,0,7.89-30.65,2.25-40.31,0,0-20.5-21.77-37.21-4.29,0,0-10,10.73,2.76,28.67,0,0,1.84,6.29.61,11.2"/><path class="cls-9" d="M141.23,40.53s-4.25,8.8,4.25,15.85c0,0,4.36,1.33,6.59,1.83l.39-6S140.39,49.33,141.23,40.53Z"/><path class="cls-6" d="M165.94,13.94s-20.5-21.77-37.21-4.29c0,0-10,10.73,2.76,28.67a30.51,30.51,0,0,1,.88,4.68A8.67,8.67,0,0,0,137,34.84s-2.38-7.33,4.27-8.51c0,0,2.37-.24,3.09,3.55,0,0,5.37.94,6.82-3.55,0,0,7-4.07,2.44-12.35A84.72,84.72,0,0,0,165.94,13.94Z"/><path class="cls-10" d="M151.25,69.82s7.53,37.72,5.08,53.29a184.39,184.39,0,0,0,25.93,9.19l-4.44,13.75s-29-4.71-36.59-8.39l-2.91-51.77L139.54,69S142.77,64.41,151.25,69.82Z"/><path class="cls-11" d="M151.25,63.22V74.31S168.58,97,153.54,110c0,0-14.74,44.34-16.54,59.78,0,0-35,5.68-51.91,1.15l10.09-73,10.5-36.84S113,50.68,130.4,47.79Z"/><path class="cls-6" d="M139.76,111.61s-23,5.85-23.25-15.5c0,0-10.6,17.81-10.53,18.84s0,17.67,0,17.67l9.89,13.43s7.69,8.18,7.69,6.55-2.93-18.88-.69-32.12C122.87,120.48,135.49,119.3,139.76,111.61Z"/><path class="cls-6" d="M122.61,91.45s-2.32,18.55.26,29l-6.36-.89-12.67-6.31Z"/><path class="cls-6" d="M144.29,74.43l-20.59-25c-12.56,4-18,11.67-18,11.67l-1.3,4.58A51.77,51.77,0,0,0,144.29,74.43Z"/><path class="cls-12" d="M105.68,61.08s12.06,15.42,16.93,30.37l-13.38,23,6,1.75A39.9,39.9,0,0,0,128,91.45s3.78-27.36-14.62-38C113.36,53.46,105.93,51.51,105.68,61.08Z"/><path class="cls-13" d="M122.58,91.36l0,.09-13.38,23,6,1.75a39.89,39.89,0,0,0,12.74-24.49A11.1,11.1,0,0,1,122.58,91.36Z"/><path class="cls-6" d="M104.09,66.68,95.18,97.92,88.12,149l21.62,23.51A265.56,265.56,0,0,0,137,169.76c-3.49-3.58-6.83-6.64-6.83-6.64l-27.5-26.66,12.31-41C113.71,76.71,108.43,69.46,104.09,66.68Z"/><path class="cls-14" d="M62.11,335.08s.51,11.85,0,15.68c0,0,10.08,7,11,10.36v2.7a54.23,54.23,0,0,1-21.62,0l-15.53-25s3-8,8.16-10.32Z"/><path class="cls-15" d="M106.17,195.46s-9,45.91-18.3,59l-7.46,10.87s-19.79,26.84-29.87,49.61c-2.85,6.45-4.93,10.74-6.44,13.58,1.34,3,5.45,7.32,18,6.58,0,0,29.5-47.41,40-59a72.21,72.21,0,0,0,9.7-17.17s24.27-32.85,28-42.18Z"/><path class="cls-16" d="M100.57,219.86l.66.61s11.1,12.68,20.83,24.15c7.1-10.08,15.61-22.66,17.7-27.88l-33.59-21.28S103.94,206.83,100.57,219.86Z"/><path class="cls-17" d="M54.51,360.41,37.86,334.92a29.42,29.42,0,0,0-1.92,3.9l15.53,25a54.23,54.23,0,0,0,21.62,0v-2.7C61.58,361.83,54.51,360.41,54.51,360.41Z"/><path class="cls-14" d="M177.53,338.81l2.64,11.57,16,5.61s8.35,2.89,8.68,9.48H159.16s-.71-9.42.46-16.42Z"/><path class="cls-15" d="M85.09,170.91S80,194,105.3,216.39c0,0,30.32,34.66,34.66,41.15a27.58,27.58,0,0,1,1.72,5.85s-1.82,31.25,7.47,49.36c0,0,8,27.93,10.47,36.3,0,0,11.75,2.78,20.55-4.19,0,0-14-60.41-16.08-78.52,0,0,.45-18.12-4.53-25.59l-38.71-69.84S96.65,168.32,85.09,170.91Z"/><path class="cls-16" d="M120.85,170.91s-24.2-2.59-35.76,0c0,0-3.56,16.29,10.26,34.76,5.14,2.8,11.9,4.08,20.84,2.55,0,0,11.81-2.56,19.49-10.55Z"/><path class="cls-17" d="M159,361.92c.06,2.13.17,3.55.17,3.55H204.8a8.11,8.11,0,0,0-1-3.42C195.41,362,167.47,361.73,159,361.92Z"/><path class="cls-18" d="M94.23,104.78c-3.43,30.27-4.15,63.47-4.22,67.11.63.09,1.27.17,1.93.24l1.92,0c0-.87,1.7-87,13.54-110.22l-1.72-.87L95.18,97.92Z"/><path class="cls-19" d="M94.54,152.6c1.17-25.43,4.17-68.77,11.44-87.4a11.57,11.57,0,0,0-1.25-.78l-9.55,33.5-1,6.86C92.5,120,91.46,136,90.85,148.58Z"/><path class="cls-20" d="M147,62.22s9.74,57.37-.49,104.45"/><path class="cls-19" d="M89.63,169.76s-.45,42.76,37.06,36.32c0,0,36.39-7.84,23-39.19C149.65,166.89,109.94,163.66,89.63,169.76Z"/><path class="cls-18" d="M124.72,193s32.48-1.93,25-25.85c0-.07,0-.14-.08-.22s-39.71-3.23-60,2.87C89.63,169.76,93,197,124.72,193Z"/><path class="cls-21" d="M151.66,186.44a27.42,27.42,0,0,0-4.12-9.88l1-.71a75.31,75.31,0,0,0-8.42-9.51,284.26,284.26,0,0,0-29.46.17L120,176.7l12.46,10.87.59-.44c3.46,4.9,5.26,12.11,5.71,14.12C144,198.2,149.5,193.48,151.66,186.44Z"/><path class="cls-8" d="M149.2,172.66s5.69,7,5.48,14.73c0,0-1.5,12.13-13.06,12,0,0-2.59-13-8.64-17.74C133,181.69,135.65,168.63,149.2,172.66Z"/><path class="cls-14" d="M105.68,61.08s14.76-2.61,16.93,30.37l-11.73,39.09,26.92,28.62s10,9.11,13.45,14.32L135.19,185.2l-12.45-10.88-33.11-36S89.63,91.45,105.68,61.08Z"/><path class="cls-15" d="M151.25,173.48c-3.47-5.21-13.45-14.32-13.45-14.32a48.5,48.5,0,0,0-15.06,15.16l12.45,10.88Z"/><path class="cls-7" d="M153.61,55.5s-9.65,2-21.11-9a29.42,29.42,0,0,0-1-8.17,42.18,42.18,0,0,1-3.5-5.83h0s-10.13,5.24-9.72,15.3a9.4,9.4,0,0,0,0,10.89S142,83.37,154.6,70.91c0,0,6.42.17,11.34-3.64C165.94,67.27,162.6,55.56,153.61,55.5Z"/><polygon class="cls-22" points="212.32 129.48 206.06 108.51 167.97 135.86 181.78 159.16 212.32 129.48"/><polygon class="cls-23" points="195.41 112.57 164.1 147.96 181.78 159.16 212.32 129.48 195.41 112.57"/><path class="cls-8" d="M205.75,135.86S184.17,132,191.2,150C191.2,150,210.77,153.83,205.75,135.86Z"/><path class="cls-24" d="M126.62,49.88a11.5,11.5,0,0,1,4.1-12.33l.11-.19A41.67,41.67,0,0,1,128,32.49h0s-10.13,5.24-9.72,15.3a9.4,9.4,0,0,0,0,10.89s1.45,1.5,3.83,3.59C120.42,54.47,126.62,49.88,126.62,49.88Z"/><path class="cls-9" d="M167.84,29.16c-.24,3.73-.74,7.61-1.31,11.17h0a13.23,13.23,0,0,0,4.39,0Z"/><path class="cls-3" d="M61.06,123.11a25.29,25.29,0,0,0,11.54-3.52s9.53-34.4,2.18-52.91C74.78,66.68,48.72,81.41,61.06,123.11Z"/><path class="cls-24" d="M74.78,66.68s-10.93-3.38-19.29,0c0,0-18,24.8-11.39,52.91,0,0,5.41,3.22,17,3.52C61.06,123.11,59,91.57,74.78,66.68Z"/><path class="cls-3" d="M52.25,94.14C49.8,89.08,49.17,82.52,49,78.4c-.78,1.76-1.56,3.69-2.3,5.77,1.38,12.36,4.52,16.14,4.52,16.14l9.18-7.23c-2.61,14.19-11.88,17.64-17.6,18.38a53.46,53.46,0,0,0,1.26,8.13s5.41,3.22,17,3.52c0,0-1.38-21.69,7.12-43.29A175.55,175.55,0,0,1,52.25,94.14Z"/><path class="cls-3" d="M56.23,177.38a18.91,18.91,0,0,0,8.67-2.65s7.16-25.85,1.64-39.76C66.54,135,47,146,56.23,177.38Z"/><path class="cls-24" d="M66.54,135s-8.22-2.55-14.5,0c0,0-13.53,18.64-8.56,39.76,0,0,4.07,2.43,12.75,2.65C56.23,177.38,54.71,153.67,66.54,135Z"/><path class="cls-3" d="M49.61,155.61c-1.85-3.81-2.32-8.74-2.41-11.84-.59,1.33-1.18,2.78-1.74,4.34,1,9.29,3.4,12.13,3.4,12.13l6.9-5.43c-2,10.66-8.92,13.25-13.23,13.81a40.08,40.08,0,0,0,.95,6.11s4.07,2.43,12.75,2.65a84.79,84.79,0,0,1,5.35-32.54A133,133,0,0,1,49.61,155.61Z"/><path class="cls-24" d="M137,62.22a23.5,23.5,0,0,0,7,8.69s-3.2,1.74-10-.13c7,3.81,15,5.74,20.62.13C154.6,70.91,142.52,68.51,137,62.22Z"/><path class="cls-12" d="M78.82,188.54s1.47,28-9.88,37.68l5,3.38s11-14.74,8.55-41.06Z"/><path class="cls-12" d="M59.3,183.89s-8.66,16.72,0,32.91l5.1-4.11s-6.09-13.52-1-27.53Z"/></g></g></g></svg>