<svg xmlns="http://www.w3.org/2000/svg" viewBox="0 0 159.74 26.83"><defs><style>.cls-1{font-size:18.43px;font-family:NexaBold, Nexa Bold;}.cls-2,.cls-3{fill:#3b9e3b;}.cls-2{font-family:NexaLight, Nexa Light;}</style></defs><title>logo</title><g id="Layer_2" data-name="Layer 2"><g id="Layer_1-2" data-name="Layer 1"><text class="cls-1" transform="translate(25.77 20.9)"><tspan xml:space="preserve">	 </tspan><tspan class="cls-2" x="70.8" y="0">Square</tspan></text><g id="Logo"><g id="YASSIR_Wordmark" data-name="YASSIR Wordmark"><path d="M32.31,13.39,35.78,8h3v.11l-5.2,7.55v5.39H31.08V15.66l-5-7.55V8H29Z"/><path d="M47.6,18.59H40.77l-1.11,2.46H37L42.84,8h2.69l5.85,13.05H48.7Zm-3.41-7.85L41.76,16.3h4.85Z"/><path d="M60.35,11.15A3.76,3.76,0,0,0,57.26,9.7c-1.83,0-2.71.76-2.71,1.73,0,1.14,1.35,1.46,2.91,1.64,2.72.34,5.26,1,5.26,4.16,0,2.91-2.57,4.16-5.48,4.16-2.67,0-4.72-.82-5.69-3.21l2.05-1.06a3.74,3.74,0,0,0,3.68,2.07c1.54,0,3-.54,3-2,0-1.23-1.29-1.73-3-1.92-2.67-.32-5.13-1-5.13-4,0-2.69,2.65-3.79,5-3.81,2,0,4.14.58,5.13,2.6Z"/><path d="M72.68,11.15a3.76,3.76,0,0,0-3.1-1.45c-1.83,0-2.7.76-2.7,1.73,0,1.14,1.34,1.46,2.91,1.64,2.72.34,5.25,1,5.25,4.16,0,2.91-2.57,4.16-5.48,4.16-2.66,0-4.71-.82-5.68-3.21l2.05-1.06a3.73,3.73,0,0,0,3.67,2.07c1.55,0,3-.54,3-2,0-1.23-1.28-1.73-3-1.92-2.66-.32-5.13-1-5.13-4,0-2.69,2.65-3.79,5.06-3.81,2,0,4.14.58,5.12,2.6Z"/><path d="M77,21.05V8h2.44V21.05Z"/><path d="M93.3,21.05H90.37l-3.8-4.36H84.2v4.36H81.74V8L88,8c3.07,0,4.7,2.07,4.7,4.33a3.87,3.87,0,0,1-3.3,4.1l4,4.45ZM84.2,10.29v4.18H88a2.1,2.1,0,1,0,0-4.18Z"/></g><g id="Logo_Symbol" data-name="Logo Symbol"><path d="M12.62,21.54a3.53,3.53,0,0,1-2.44,0L0,17.83v4.35l10.18,3.71a3.53,3.53,0,0,0,2.44,0L22.8,22.18V17.83Z"/><path class="cls-3" d="M12.89.8a1.78,1.78,0,0,0-3,0L0,15.66l10.18,3.7a3.53,3.53,0,0,0,2.44,0l10.18-3.7Z"/></g></g></g></g></svg>